<svg width="300" height="400" viewBox="0 0 300 400" fill="none" xmlns="http://www.w3.org/2000/svg">
    <rect width="300" height="400" fill="#F5F5F5"/>
    <path d="M213.852 200.234C213.852 196.232 213.852 192.227 213.852 188.225C213.852 187.661 213.857 187.098 213.878 186.537C213.895 186.091 214.151 185.82 214.553 185.8C214.864 185.786 215.177 185.779 215.488 185.779C219.17 185.779 222.851 185.776 226.533 185.784C228.86 185.788 231.131 186.155 233.329 186.923C235.051 187.525 236.645 188.371 238.046 189.551C240.702 191.786 242.216 194.633 242.623 198.088C242.881 200.294 242.75 202.465 242.049 204.575C240.915 207.975 238.769 210.58 235.726 212.441C233.676 213.695 231.451 214.467 229.059 214.752C227.817 214.901 226.576 214.987 225.325 214.983C222.205 214.971 219.084 214.98 215.964 214.978C215.467 214.978 214.967 214.963 214.469 214.942C214.18 214.93 213.904 214.633 213.89 214.311C213.866 213.75 213.849 213.187 213.849 212.625C213.847 208.496 213.849 204.369 213.849 200.239L213.852 200.234ZM217.904 200.345C217.904 203.412 217.902 206.481 217.907 209.549C217.907 210.047 217.947 210.546 217.976 211.045C217.988 211.263 218.167 211.405 218.328 211.438C218.691 211.513 219.067 211.546 219.44 211.546C221.626 211.556 223.813 211.568 225.999 211.541C226.808 211.532 227.619 211.446 228.425 211.345C230.384 211.103 232.169 210.383 233.784 209.256C236.08 207.654 237.59 205.498 238.252 202.76C238.58 201.405 238.604 200.031 238.477 198.654C238.276 196.46 237.413 194.551 235.915 192.94C234.968 191.92 233.846 191.139 232.587 190.546C230.631 189.625 228.559 189.222 226.413 189.196C224.04 189.167 221.667 189.182 219.292 189.189C217.998 189.194 217.914 189.275 217.911 190.573C217.902 193.829 217.909 197.086 217.909 200.34L217.904 200.345Z" fill="#E3E2DE"/>
    <path d="M199.6 195.381C199.6 197.698 199.615 200.012 199.595 202.329C199.586 203.643 199.514 204.947 199.184 206.237C198.229 209.986 196.022 212.7 192.579 214.42C191 215.209 189.326 215.667 187.572 215.871C185.314 216.134 183.087 216.007 180.888 215.424C179.369 215.022 177.946 214.391 176.647 213.496C173.463 211.302 171.762 208.225 171.324 204.417C171.253 203.796 171.241 203.168 171.241 202.542C171.234 197.472 171.236 192.405 171.236 187.336C171.236 187.211 171.236 187.086 171.238 186.959C171.265 185.911 171.375 185.794 172.434 185.782C173.121 185.775 173.808 185.782 174.494 185.794C175.032 185.806 175.248 186.036 175.272 186.621C175.291 187.058 175.291 187.496 175.291 187.935C175.291 192.441 175.286 196.947 175.296 201.453C175.296 202.329 175.3 203.209 175.398 204.077C175.839 207.926 177.891 210.576 181.518 211.868C184.319 212.866 187.18 212.799 189.931 211.616C193.043 210.281 194.837 207.868 195.371 204.516C195.529 203.523 195.565 202.525 195.562 201.523C195.555 197.017 195.557 192.511 195.562 188.007C195.562 187.446 195.596 186.885 195.627 186.324C195.639 186.086 195.883 185.854 196.108 185.83C196.232 185.818 196.356 185.791 196.478 185.794C200.002 185.837 199.562 185.221 199.588 188.818C199.605 191.007 199.591 193.199 199.591 195.389L199.6 195.381Z" fill="#E3E2DE"/>
    <path d="M146.708 215.758C143.134 215.607 139.63 215.06 136.242 213.861C135.891 213.736 135.549 213.578 135.206 213.427C135.032 213.35 134.843 212.981 134.898 212.791C135.125 212.014 135.357 211.237 135.604 210.465C135.675 210.237 135.986 210.108 136.226 210.187C136.522 210.283 136.814 210.393 137.108 210.499C139.893 211.482 142.756 212.084 145.708 212.257C147.409 212.357 149.079 212.189 150.706 211.679C151.67 211.376 152.55 210.909 153.296 210.213C154.26 209.317 154.758 208.201 154.808 206.887C154.846 205.89 154.476 205.055 153.77 204.362C153.318 203.918 152.792 203.592 152.225 203.314C151.323 202.873 150.378 202.544 149.411 202.295C147.899 201.906 146.383 201.54 144.864 201.18C143.527 200.863 142.204 200.492 140.912 200.019C139.852 199.631 138.857 199.113 137.926 198.468C135.496 196.777 134.707 193.837 135.331 191.336C135.594 190.278 136.139 189.374 136.864 188.576C137.63 187.731 138.536 187.074 139.544 186.549C141.29 185.64 143.153 185.149 145.108 185.038C146.543 184.957 147.976 185.019 149.409 185.194C151.708 185.475 153.98 185.859 156.208 186.504C156.507 186.59 156.794 186.712 157.083 186.825C157.306 186.914 157.454 187.209 157.389 187.439C157.219 188.041 157.03 188.638 156.865 189.242C156.516 190.53 156.411 190.568 155.2 190.141C152.954 189.345 150.648 188.808 148.282 188.532C146.658 188.343 145.041 188.343 143.443 188.753C142.589 188.971 141.766 189.271 141.039 189.772C140.632 190.053 140.232 190.374 139.91 190.748C138.761 192.072 138.855 193.928 140.099 195.158C140.639 195.693 141.29 196.06 141.976 196.374C142.948 196.818 143.967 197.118 144.993 197.381C146.081 197.659 147.177 197.911 148.275 198.151C149.679 198.458 151.076 198.801 152.423 199.305C153.299 199.633 154.165 200.007 154.978 200.46C155.626 200.823 156.239 201.283 156.782 201.789C158.353 203.252 158.954 205.134 158.815 207.228C158.672 209.384 157.727 211.187 156.107 212.624C154.822 213.763 153.337 214.547 151.701 215.036C150.076 215.523 148.419 215.808 146.713 215.758H146.708Z" fill="#E3E2DE"/>
    <path d="M44.018 185.904C44.1735 185.87 44.3529 185.798 44.5324 185.796C45.5323 185.784 46.5298 185.784 47.5298 185.791C47.9963 185.794 48.1685 186.089 47.9699 186.549C47.7738 187.009 47.5585 187.46 47.348 187.913C45.817 191.204 44.286 194.491 42.755 197.782C40.3532 202.942 37.9562 208.108 35.5449 213.264C35.2841 213.822 35.1143 214.446 34.5569 214.909C33.301 215.026 31.9925 214.988 30.6863 214.933C30.4112 214.921 30.227 214.724 30.1003 214.513C29.9089 214.192 29.763 213.844 29.6051 213.503C25.591 204.885 21.5745 196.266 17.5604 187.645C17.3762 187.249 17.18 186.854 17.0293 186.446C16.9695 186.288 17.0197 186.089 17.0197 185.854C18.4144 185.738 19.7732 185.729 21.0936 185.858C21.6008 186.431 21.8113 187.096 22.096 187.714C25.2441 194.53 28.3803 201.35 31.5284 208.165C31.7891 208.731 32.0882 209.278 32.392 209.822C32.4207 209.873 32.6719 209.882 32.7078 209.832C32.9183 209.527 33.1216 209.211 33.2771 208.875C34.911 205.357 36.5377 201.837 38.162 198.314C39.815 194.736 41.4608 191.156 43.1186 187.58C43.3817 187.014 43.5779 186.412 44.018 185.906V185.904Z" fill="#E3E2DE"/>
    <path d="M109.619 209.972C109.94 209.852 110.05 209.56 110.176 209.289C111.179 207.133 112.176 204.975 113.174 202.816C115.537 197.706 117.898 192.593 120.259 187.483C120.444 187.085 120.609 186.68 120.817 186.294C120.968 186.013 121.204 185.795 121.554 185.795C122.616 185.792 123.678 185.795 124.738 185.804C125.061 185.807 125.245 186.15 125.101 186.481C124.876 186.996 124.644 187.509 124.408 188.02C120.865 195.62 117.322 203.217 113.779 210.814C113.224 212.006 112.664 213.193 112.104 214.382C111.93 214.754 111.636 214.963 111.222 214.96C110.097 214.96 108.973 214.953 107.849 214.941C107.583 214.939 107.358 214.8 107.236 214.572C106.971 214.075 106.724 213.569 106.488 213.059C102.842 205.231 99.1986 197.404 95.5529 189.577C95.1032 188.613 94.651 187.651 94.2157 186.68C94.1415 186.517 94.1176 186.32 94.1247 186.14C94.1295 186.044 94.2372 185.884 94.3185 185.872C95.4979 185.689 96.682 185.78 97.8661 185.812C98.1365 185.819 98.347 185.979 98.4642 186.207C98.7513 186.761 99.0216 187.327 99.2823 187.896C102.426 194.713 105.562 201.536 108.712 208.349C108.971 208.91 109.121 209.541 109.617 209.975L109.619 209.972Z" fill="#E3E2DE"/>
    <path d="M255.823 214.594C254.689 214.666 253.505 214.668 252.321 214.594C252.084 214.579 251.905 214.279 251.998 214.042C252.134 213.694 252.266 213.342 252.421 213.004C256.488 204.272 260.56 195.543 264.631 186.817C264.763 186.534 264.902 186.253 265.045 185.975C265.198 185.678 265.435 185.481 265.777 185.476C266.901 185.464 268.023 185.462 269.148 185.467C269.48 185.467 269.755 185.615 269.916 185.915C270.121 186.301 270.31 186.697 270.494 187.092C274.482 195.654 278.47 204.215 282.455 212.776C282.64 213.172 282.833 213.567 282.979 213.98C283.034 214.136 282.965 214.337 282.948 214.558C281.683 214.699 280.439 214.658 279.197 214.594C278.932 214.579 278.731 214.399 278.616 214.172C278.334 213.613 278.071 213.044 277.81 212.478C274.666 205.663 271.53 198.845 268.38 192.032C268.126 191.483 267.949 190.881 267.514 190.438C267.088 190.642 266.992 191.02 266.837 191.356C265.366 194.534 263.894 197.714 262.426 200.891C260.536 204.98 258.651 209.068 256.754 213.152C256.522 213.654 256.383 214.227 255.823 214.591V214.594Z" fill="#E3E2DE"/>
    <path d="M72.5273 195.382C75.3931 195.373 78.1106 195.994 80.6177 197.402C84.6868 199.685 87.122 203.179 87.9904 207.74C88.354 209.656 88.299 211.605 87.9378 213.534C87.8588 213.953 87.567 214.215 87.1651 214.217C86.1676 214.219 85.1676 214.205 84.1701 214.193C84.0505 214.193 83.8304 213.903 83.8447 213.778C83.9309 213.097 84.0265 212.416 84.1055 211.733C84.2992 210.092 84.1438 208.474 83.6414 206.908C82.1582 202.291 78.9647 199.625 74.2305 198.831C70.7164 198.241 67.518 199.083 64.7479 201.334C62.3604 203.275 61.0232 205.824 60.65 208.893C60.4515 210.531 60.6213 212.138 60.8581 213.752C60.8773 213.879 60.6787 214.044 60.5639 214.179C60.5328 214.215 60.4443 214.21 60.3845 214.21C59.3869 214.21 58.387 214.217 57.3895 214.195C57.1263 214.188 56.9469 213.982 56.8512 213.735C56.7842 213.56 56.7149 213.38 56.6909 213.198C56.38 210.752 56.3776 208.318 57.155 205.948C58.8989 200.641 62.5446 197.354 67.884 195.905C69.4007 195.493 70.958 195.373 72.5225 195.385L72.5273 195.382Z" fill="#E3E2DE"/>
    <path d="M63.0709 186.587C63.4441 186.587 63.8197 186.606 64.1929 186.584C65.2048 186.524 66.1425 186.733 67.0994 187.095C70.3145 188.306 73.5655 188.306 76.7758 187.059C77.6107 186.736 78.4264 186.553 79.3163 186.582C80.5603 186.62 81.809 186.604 83.0529 186.623C83.1558 186.623 83.2587 186.721 83.3591 186.779C83.4835 186.853 83.4357 187.112 83.273 187.268C83.1367 187.397 83.0075 187.532 82.8639 187.652C82.1415 188.251 81.3664 188.769 80.5387 189.213C78.7637 190.167 76.8667 190.726 74.8812 191.045C72.19 191.477 69.537 191.304 66.9128 190.644C64.5852 190.059 62.4753 189.011 60.6524 187.429C60.5185 187.313 60.4108 187.146 60.3486 186.98C60.3175 186.901 60.4132 186.683 60.4634 186.678C61.0208 186.632 61.5782 186.611 62.138 186.594C62.449 186.584 62.7599 186.594 63.0733 186.594L63.0709 186.587Z" fill="#E3E2DE"/>
</svg>