<svg width="88" height="16" viewBox="0 0 88 16" fill="none" xmlns="http://www.w3.org/2000/svg">
<path d="M8 1.12978L9.90277 4.98522L10.0191 5.22094L10.2792 5.25874L14.534 5.87698L11.4552 8.87803L11.267 9.06151L11.3114 9.32059L12.0382 13.5581L8.23267 11.5574L8 11.4351L7.76733 11.5574L3.96178 13.5581L4.68858 9.32059L4.73301 9.06151L4.54478 8.87802L1.46603 5.87698L5.72076 5.25874L5.98089 5.22094L6.09723 4.98522L8 1.12978Z" stroke="#6B645C"/>
<path d="M26 1.12978L27.9028 4.98522L28.0191 5.22094L28.2792 5.25874L32.534 5.87698L29.4552 8.87803L29.267 9.06151L29.3114 9.32059L30.0382 13.5581L26.2327 11.5574L26 11.4351L25.7673 11.5574L21.9618 13.5581L22.6886 9.32059L22.733 9.06151L22.5448 8.87802L19.466 5.87698L23.7208 5.25874L23.9809 5.22094L24.0972 4.98522L26 1.12978Z" stroke="#6B645C"/>
<path d="M44 1.12978L45.9028 4.98522L46.0191 5.22094L46.2792 5.25874L50.534 5.87698L47.4552 8.87803L47.267 9.06151L47.3114 9.32059L48.0382 13.5581L44.2327 11.5574L44 11.4351L43.7673 11.5574L39.9618 13.5581L40.6886 9.32059L40.733 9.06151L40.5448 8.87802L37.466 5.87698L41.7208 5.25874L41.9809 5.22094L42.0972 4.98522L44 1.12978Z" stroke="#6B645C"/>
<path d="M62 1.12978L63.9028 4.98522L64.0191 5.22094L64.2792 5.25874L68.534 5.87698L65.4552 8.87803L65.267 9.06151L65.3114 9.32059L66.0382 13.5581L62.2327 11.5574L62 11.4351L61.7673 11.5574L57.9618 13.5581L58.6886 9.32059L58.733 9.06151L58.5448 8.87802L55.466 5.87698L59.7208 5.25874L59.9809 5.22094L60.0972 4.98522L62 1.12978Z" stroke="#6B645C"/>
<path d="M80 1.12978L81.9028 4.98522L82.0191 5.22094L82.2792 5.25874L86.534 5.87698L83.4552 8.87803L83.267 9.06151L83.3114 9.32059L84.0382 13.5581L80.2327 11.5574L80 11.4351L79.7673 11.5574L75.9618 13.5581L76.6886 9.32059L76.733 9.06151L76.5448 8.87802L73.466 5.87698L77.7208 5.25874L77.9809 5.22094L78.0972 4.98522L80 1.12978Z" stroke="#6B645C"/>
</svg>
