<svg width="88" height="16" viewBox="0 0 88 16" fill="none" xmlns="http://www.w3.org/2000/svg">
<path d="M8 0L10.3511 4.76393L15.6085 5.52786L11.8042 9.23607L12.7023 14.4721L8 12L3.29772 14.4721L4.19577 9.23607L0.391548 5.52786L5.64886 4.76393L8 0Z" fill="#6B645C"/>
<path d="M26 0L28.3511 4.76393L33.6085 5.52786L29.8042 9.23607L30.7023 14.4721L26 12L21.2977 14.4721L22.1958 9.23607L18.3915 5.52786L23.6489 4.76393L26 0Z" fill="#6B645C"/>
<path d="M44 0L46.3511 4.76393L51.6085 5.52786L47.8042 9.23607L48.7023 14.4721L44 12L39.2977 14.4721L40.1958 9.23607L36.3915 5.52786L41.6489 4.76393L44 0Z" fill="#6B645C"/>
<path d="M62 0L64.3511 4.76393L69.6085 5.52786L65.8042 9.23607L66.7023 14.4721L62 12L57.2977 14.4721L58.1958 9.23607L54.3915 5.52786L59.6489 4.76393L62 0Z" fill="#6B645C"/>
<path d="M80 0L82.3511 4.76393L87.6085 5.52786L83.8042 9.23607L84.7023 14.4721L80 12L75.2977 14.4721L76.1958 9.23607L72.3915 5.52786L77.6489 4.76393L80 0Z" fill="#6B645C"/>
</svg>
