<svg version="1.1" xmlns="http://www.w3.org/2000/svg" xmlns:xlink="http://www.w3.org/1999/xlink">

    <symbol viewBox="0 0 183 21" id="logo">
        <path d="M135.428 10.3201C135.428 7.60883 135.428 4.8959 135.428 2.1846C135.428 1.80284 135.431 1.42108 135.446 1.04095C135.458 0.73879 135.634 0.55522 135.91 0.542224C136.124 0.532477 136.34 0.527604 136.554 0.527604C139.087 0.527604 141.619 0.525979 144.152 0.530853C145.754 0.534102 147.315 0.782651 148.828 1.30249C150.013 1.71024 151.109 2.2837 152.073 3.08295C153.9 4.59699 154.942 6.52528 155.222 8.8662C155.399 10.3607 155.309 11.8309 154.827 13.2605C154.047 15.564 152.57 17.3283 150.477 18.5889C149.067 19.4385 147.536 19.9616 145.89 20.1549C145.036 20.2556 144.182 20.3141 143.321 20.3108C141.175 20.3027 139.027 20.3092 136.881 20.3076C136.539 20.3076 136.195 20.2979 135.853 20.2832C135.654 20.2751 135.464 20.0737 135.454 19.856C135.438 19.4759 135.427 19.0941 135.427 18.714C135.425 15.9166 135.427 13.1208 135.427 10.3234L135.428 10.3201ZM138.216 10.3949C138.216 12.4726 138.214 14.552 138.218 16.6297C138.218 16.9676 138.246 17.3055 138.265 17.6434C138.274 17.7912 138.397 17.8871 138.507 17.9098C138.758 17.9602 139.016 17.9829 139.273 17.9829C140.777 17.9894 142.281 17.9976 143.785 17.9797C144.342 17.9732 144.899 17.9147 145.454 17.8465C146.802 17.6824 148.03 17.195 149.141 16.4315C150.721 15.3464 151.759 13.8859 152.215 12.0307C152.44 11.1129 152.457 10.182 152.37 9.24958C152.231 7.76316 151.637 6.47005 150.607 5.37838C149.955 4.68797 149.183 4.15838 148.318 3.75712C146.971 3.13331 145.546 2.8604 144.07 2.84253C142.437 2.82303 140.805 2.83278 139.171 2.83765C138.28 2.8409 138.223 2.89613 138.221 3.77499C138.214 5.98107 138.219 8.18715 138.219 10.3916L138.216 10.3949Z" />
        <path d="M125.623 7.03244C125.623 8.60172 125.633 10.1694 125.62 11.7386C125.614 12.6289 125.564 13.5126 125.337 14.3866C124.68 16.9257 123.161 18.7646 120.793 19.9294C119.707 20.4639 118.555 20.7741 117.349 20.9122C115.795 21.0909 114.263 21.0048 112.75 20.6101C111.705 20.3372 110.726 19.9099 109.832 19.304C107.642 17.8175 106.472 15.7333 106.171 13.1536C106.121 12.7328 106.113 12.3072 106.113 11.8832C106.108 8.44901 106.11 5.01643 106.11 1.58222C106.11 1.49775 106.11 1.41327 106.111 1.32717C106.129 0.617265 106.205 0.537664 106.934 0.529541C107.406 0.524668 107.879 0.529541 108.351 0.537664C108.721 0.545786 108.87 0.701739 108.886 1.09812C108.899 1.39378 108.899 1.69106 108.899 1.98835C108.899 5.0408 108.896 8.09324 108.902 11.1457C108.902 11.7386 108.906 12.3348 108.973 12.9229C109.276 15.5302 110.688 17.3253 113.183 18.2009C115.11 18.8767 117.079 18.8312 118.971 18.0303C121.112 17.1255 122.347 15.4912 122.714 13.2202C122.822 12.5476 122.847 11.8718 122.845 11.1928C122.84 8.14035 122.842 5.08791 122.845 2.03708C122.845 1.65695 122.868 1.27681 122.89 0.89668C122.898 0.735854 123.066 0.578277 123.221 0.562032C123.306 0.553909 123.392 0.536039 123.476 0.537664C125.9 0.566905 125.597 0.149407 125.615 2.58617C125.627 4.06934 125.617 5.55414 125.617 7.03731L125.623 7.03244Z" />
        <path d="M89.2353 20.8359C86.7765 20.7335 84.3655 20.3631 82.0351 19.5509C81.7932 19.4664 81.5578 19.3592 81.3225 19.2568C81.2024 19.2049 81.0723 18.9547 81.1102 18.8263C81.2665 18.3 81.4262 17.7737 81.5957 17.2506C81.6451 17.0963 81.859 17.0085 82.0236 17.0621C82.2277 17.1271 82.4284 17.2018 82.6309 17.2733C84.5465 17.9394 86.5165 18.3471 88.5474 18.4641C89.7175 18.5323 90.8662 18.4186 91.9854 18.0726C92.6486 17.8679 93.2542 17.5511 93.7677 17.08C94.431 16.4724 94.7733 15.717 94.8078 14.8268C94.8342 14.151 94.5791 13.5857 94.0936 13.1162C93.7825 12.8157 93.4205 12.5947 93.0304 12.4063C92.41 12.1074 91.7599 11.8848 91.095 11.7159C90.0549 11.4527 89.0115 11.2042 87.9664 10.9605C87.0464 10.7461 86.1363 10.4943 85.2476 10.1742C84.5186 9.91106 83.8339 9.56016 83.1937 9.12317C81.5216 7.97789 80.9785 5.98625 81.4081 4.29189C81.5891 3.57548 81.9643 2.96304 82.463 2.42208C82.9897 1.85025 83.6134 1.40514 84.3063 1.04937C85.5077 0.433682 86.7897 0.100658 88.1343 0.0259312C89.1217 -0.0293021 90.1076 0.0129351 91.0934 0.131524C92.6749 0.321591 94.2384 0.581513 95.7706 1.0185C95.9763 1.07699 96.1738 1.15984 96.373 1.23619C96.526 1.2963 96.628 1.49611 96.5836 1.65206C96.4668 2.05981 96.3367 2.46432 96.2232 2.87369C95.9829 3.74605 95.9105 3.77204 95.0777 3.48288C93.5324 2.94355 91.9459 2.57966 90.3182 2.39284C89.2007 2.2645 88.0882 2.2645 86.9888 2.54229C86.4013 2.69012 85.8352 2.89319 85.3349 3.23271C85.0551 3.42278 84.7802 3.64046 84.5581 3.89388C83.7681 4.79061 83.8323 6.04798 84.6881 6.88135C85.06 7.24362 85.5077 7.49216 85.98 7.70498C86.6482 8.00551 87.3493 8.20857 88.0553 8.38727C88.8041 8.57571 89.5579 8.74628 90.3133 8.90873C91.2793 9.11667 92.2405 9.34898 93.167 9.69012C93.7694 9.91268 94.3651 10.1661 94.9247 10.4731C95.3707 10.7184 95.792 11.0303 96.1656 11.3731C97.2469 12.3641 97.6599 13.6393 97.5645 15.0575C97.4657 16.5179 96.8157 17.7396 95.7015 18.7126C94.8177 19.4843 93.7957 20.0155 92.67 20.3469C91.5525 20.6767 90.412 20.87 89.2386 20.8359H89.2353Z" />
        <path d="M18.5876 0.612212C18.6946 0.589469 18.818 0.540733 18.9414 0.539109C19.6294 0.530986 20.3156 0.530986 21.0036 0.53586C21.3245 0.537484 21.443 0.737299 21.3064 1.0492C21.1714 1.36111 21.0233 1.66652 20.8785 1.97355C19.8252 4.20237 18.7719 6.42957 17.7186 8.65839C16.0663 12.1543 14.4172 15.6535 12.7583 19.1462C12.5789 19.5247 12.4621 19.9471 12.0786 20.2606C11.2146 20.3402 10.3144 20.3142 9.41579 20.2769C9.22653 20.2687 9.09981 20.1355 9.01258 19.9926C8.88092 19.7749 8.78053 19.5393 8.67191 19.3087C5.91033 13.4702 3.1471 7.63171 0.385522 1.7916C0.258799 1.52356 0.123847 1.25552 0.0201641 0.97935C-0.0209798 0.872133 0.0135811 0.737299 0.0135811 0.578097C0.973058 0.500121 1.90785 0.493623 2.81631 0.581346C3.16521 0.969603 3.31003 1.41959 3.50588 1.83871C5.67169 6.45556 7.82928 11.0757 9.9951 15.6925C10.1745 16.0759 10.3802 16.4463 10.5892 16.815C10.609 16.8492 10.7818 16.8557 10.8065 16.8215C10.9513 16.6152 11.0912 16.4008 11.1981 16.1734C12.3222 13.7902 13.4413 11.4054 14.5588 9.01903C15.696 6.59527 16.8283 4.16988 17.9688 1.74774C18.1498 1.36436 18.2848 0.956607 18.5876 0.613836V0.612212Z" />
        <path d="M63.719 16.9167C63.9395 16.8355 64.0152 16.6373 64.1025 16.4537C64.792 14.9933 65.4783 13.5312 66.1646 12.0692C67.7906 8.60737 69.415 5.14392 71.0393 1.6821C71.1661 1.41243 71.2796 1.13789 71.4228 0.876341C71.5265 0.686274 71.6894 0.538444 71.9297 0.538444C72.6604 0.53682 73.3911 0.538444 74.1202 0.544942C74.3424 0.546567 74.4691 0.778871 74.3703 1.00305C74.2156 1.35232 74.056 1.69997 73.8931 2.04599C71.4557 7.19405 69.0183 12.3405 66.581 17.4869C66.1992 18.2943 65.814 19.0984 65.4289 19.9042C65.3088 20.156 65.1064 20.2973 64.8217 20.2957C64.0482 20.2957 63.2746 20.2908 62.5011 20.2827C62.3185 20.2811 62.1638 20.1869 62.0798 20.0325C61.8971 19.6963 61.7276 19.3535 61.5647 19.0075C59.0566 13.7051 56.5501 8.40268 54.0419 3.10029C53.7325 2.44724 53.4215 1.79581 53.122 1.13789C53.071 1.02742 53.0545 0.894211 53.0594 0.772373C53.0627 0.707393 53.1368 0.598551 53.1927 0.590428C54.0041 0.466966 54.8187 0.528697 55.6334 0.549816C55.8194 0.554689 55.9642 0.663531 56.0448 0.817859C56.2423 1.19312 56.4283 1.5765 56.6077 1.96151C58.7702 6.57998 60.9278 11.2017 63.0953 15.8169C63.273 16.1971 63.3767 16.6243 63.7174 16.9183L63.719 16.9167Z" />
        <path d="M164.303 20.0473C163.523 20.096 162.708 20.0976 161.894 20.0473C161.731 20.0375 161.607 19.8345 161.672 19.6736C161.765 19.4381 161.856 19.1993 161.963 18.9702C164.761 13.0554 167.562 7.1422 170.363 1.23062C170.453 1.03893 170.549 0.84886 170.648 0.660417C170.753 0.458979 170.916 0.325769 171.151 0.32252C171.925 0.314397 172.697 0.312773 173.47 0.316022C173.699 0.316022 173.888 0.416741 173.998 0.619805C174.14 0.88135 174.27 1.14939 174.397 1.41744C177.14 7.21693 179.884 13.0164 182.625 18.8159C182.752 19.0839 182.885 19.352 182.986 19.6314C183.024 19.737 182.976 19.8735 182.964 20.0229C182.094 20.1188 181.238 20.0911 180.384 20.0473C180.201 20.0375 180.063 19.9157 179.984 19.7614C179.79 19.3829 179.609 18.9978 179.429 18.6145C177.267 13.9976 175.109 9.37914 172.942 4.76392C172.767 4.39191 172.646 3.98416 172.346 3.68362C172.053 3.82171 171.987 4.07838 171.88 4.30581C170.868 6.45828 169.856 8.61238 168.845 10.7648C167.545 13.5346 166.248 16.3044 164.943 19.071C164.784 19.4105 164.688 19.7987 164.303 20.0457V20.0473Z" />
        <path d="M38.201 7.03328C40.1726 7.02678 42.0422 7.44753 43.767 8.40111C46.5664 9.94764 48.2418 12.3145 48.8392 15.4044C49.0893 16.7023 49.0515 18.0231 48.803 19.3292C48.7487 19.6135 48.5479 19.7905 48.2714 19.7922C47.5851 19.7938 46.8972 19.784 46.2109 19.7759C46.1286 19.7759 45.9772 19.5793 45.9871 19.4949C46.0463 19.0335 46.1122 18.5722 46.1665 18.1092C46.2998 16.998 46.1928 15.9015 45.8472 14.8407C44.8268 11.7135 42.6297 9.90703 39.3728 9.36932C36.9552 8.96969 34.7548 9.53989 32.849 11.0653C31.2065 12.3795 30.2866 14.1064 30.0298 16.1858C29.8932 17.2953 30.0101 18.3837 30.173 19.477C30.1862 19.5631 30.0496 19.6752 29.9706 19.7662C29.9492 19.7905 29.8883 19.7873 29.8471 19.7873C29.1609 19.7873 28.4729 19.7922 27.7867 19.7775C27.6056 19.7727 27.4822 19.633 27.4164 19.4656C27.3703 19.347 27.3225 19.2252 27.3061 19.1017C27.0921 17.4447 27.0905 15.7959 27.6254 14.1909C28.8251 10.5958 31.3333 8.36862 35.0066 7.38742C36.05 7.108 37.1214 7.02678 38.1977 7.0349L38.201 7.03328Z" />
        <path d="M31.6954 1.07494C31.9522 1.07494 32.2105 1.08794 32.4673 1.07332C33.1634 1.03271 33.8086 1.17404 34.4669 1.41934C36.6788 2.23971 38.9154 2.23971 41.124 1.39497C41.6983 1.17566 42.2595 1.0522 42.8718 1.07169C43.7276 1.09769 44.5866 1.08631 45.4424 1.09931C45.5132 1.09931 45.584 1.16591 45.6531 1.2049C45.7387 1.25526 45.7058 1.43071 45.5938 1.5363C45.5 1.62403 45.4112 1.715 45.3124 1.79622C44.8154 2.20235 44.2822 2.55324 43.7127 2.85378C42.4916 3.50033 41.1865 3.87884 39.8205 4.0949C37.969 4.38731 36.1439 4.27035 34.3385 3.82361C32.7372 3.42723 31.2856 2.71732 30.0316 1.64514C29.9394 1.56717 29.8653 1.45345 29.8225 1.34136C29.8012 1.28775 29.867 1.13992 29.9015 1.13667C30.285 1.10581 30.6685 1.09119 31.0536 1.07982C31.2675 1.07332 31.4815 1.07982 31.6971 1.07982L31.6954 1.07494Z" />
    </symbol>

    <symbol viewBox="0 0 494 428" id="logo-back">
        <path d="M486.124 426.74C484.042 427.193 482.476 427.832 480.91 427.832C463.68 427.915 446.472 427.956 429.242 427.873C424.172 427.853 423.183 426.184 424.378 420.517C424.708 418.93 425.079 417.364 425.471 415.797C427.841 406.38 428.974 396.777 429.86 387.112C431.695 367.102 430.582 347.236 425.883 327.762C409.004 257.656 364.921 213.432 296.292 192.907C244.831 180.213 195.636 185.777 149.946 213.061C104.523 240.181 77.0918 280.468 66.6635 332.42C62.5828 352.697 62.4798 373.099 64.2316 393.5C65.0972 403.618 67.9 413.572 69.7961 423.587C70.0434 424.844 68.5183 427.111 67.3848 427.235C64.7262 427.502 62.0676 427.915 59.409 427.935C48.651 428.018 37.8723 428.018 27.1143 427.956C21.7353 427.935 16.3563 427.791 10.9773 427.606C8.79269 427.544 6.62873 425.875 6.15471 424.02C5.2273 420.372 4.09373 416.766 3.51667 413.057C-7.38563 343.094 6.66994 279.232 51.1653 223.283C80.4923 186.395 118.578 161.811 163.342 147.818C197.574 137.123 232.712 133.475 268.593 136.257C297.838 138.504 326.113 144.48 352.947 156.288C426.645 188.745 472.151 244.57 489.112 323.167C495.769 353.996 495.027 385.216 489.442 416.251C488.782 419.857 487.216 423.319 486.103 426.699L486.124 426.74Z" />
        <path d="M250.318 71.488C204.339 71.1377 166.85 65.2027 131.073 50.3448C106.527 40.1441 84.166 26.4607 64.4842 8.53226C62.9591 7.13096 61.7019 5.35872 60.6714 3.56587C60.3623 3.03008 61.0836 1.27845 61.7431 0.989941C63.1651 0.371718 64.8345 0.103821 66.4008 0.103821C92.2242 0.041999 118.027 0.124429 143.85 0.000784156C149.93 -0.0404307 155.453 1.54634 160.935 3.97802C174.249 9.89235 188.16 14.0963 202.484 16.631C222.124 20.1136 241.827 21.618 261.88 19.6397C284.57 17.3935 306.375 12.324 327.232 3.17433C331.209 1.4433 335.228 0.0832139 339.659 0.0832139C367.09 0.145036 394.521 0.124429 421.931 0.289288C423.25 0.289288 424.713 1.56695 425.744 2.61793C426.074 2.94765 425.414 4.69928 424.755 5.42054C422.962 7.41946 421.024 9.29474 419.005 11.0464C393.058 33.6733 363.215 49.232 330.385 59.1235C301.862 67.6962 272.576 71.1789 250.338 71.5086L250.318 71.488Z" />
    </symbol>

    <symbol viewBox="0 0 16 16" id="header-catalogue">
        <path d="M2 8H14" stroke-width="1.33333" stroke-linecap="round" stroke-linejoin="round" />
        <path d="M2 4H14" stroke-width="1.33333" stroke-linecap="round" stroke-linejoin="round" />
        <path d="M2 12H14" stroke-width="1.33333" stroke-linecap="round" stroke-linejoin="round" />
    </symbol>

    <symbol viewBox="0 0 16 16" id="mobile-menu-link">
        <path d="M14 3.94971H3M14 7.94971H3M14 11.9497H3" stroke-width="1.33333" stroke-linecap="round" stroke-linejoin="round" />
    </symbol>

    <symbol viewBox="0 0 16 16" id="header-search">
        <path d="M7.33333 12.6667C10.2789 12.6667 12.6667 10.2789 12.6667 7.33333C12.6667 4.38781 10.2789 2 7.33333 2C4.38781 2 2 4.38781 2 7.33333C2 10.2789 4.38781 12.6667 7.33333 12.6667Z" stroke-width="1.33333" stroke-linecap="round" stroke-linejoin="round" />
        <path d="M14.0006 14.0001L11.1006 11.1001" stroke-width="1.33333" stroke-linecap="round" stroke-linejoin="round" />
    </symbol>

    <symbol viewBox="0 0 16 16" id="header-cart">
        <path d="M4 1.3335L2 4.00016V13.3335C2 13.6871 2.14048 14.0263 2.39052 14.2763C2.64057 14.5264 2.97971 14.6668 3.33333 14.6668H12.6667C13.0203 14.6668 13.3594 14.5264 13.6095 14.2763C13.8595 14.0263 14 13.6871 14 13.3335V4.00016L12 1.3335H4Z" stroke-width="1.33333" stroke-linecap="round" stroke-linejoin="round" />
        <path d="M2 4H14" stroke-width="1.33333" stroke-linecap="round" stroke-linejoin="round" />
        <path d="M10.6673 6.6665C10.6673 7.37375 10.3864 8.05203 9.88627 8.55212C9.38617 9.05222 8.7079 9.33317 8.00065 9.33317C7.29341 9.33317 6.61513 9.05222 6.11503 8.55212C5.61494 8.05203 5.33398 7.37375 5.33398 6.6665" stroke-width="1.33333" stroke-linecap="round" stroke-linejoin="round" />
    </symbol>

    <symbol viewBox="0 0 16 16" id="header-favourite">
        <path d="M13.8931 3.07309C13.5526 2.73242 13.1483 2.46218 12.7033 2.27781C12.2584 2.09343 11.7814 1.99854 11.2998 1.99854C10.8181 1.99854 10.3412 2.09343 9.89618 2.27781C9.45121 2.46218 9.04692 2.73242 8.70642 3.07309L7.99975 3.77975L7.29309 3.07309C6.60529 2.38529 5.67244 1.99889 4.69975 1.99889C3.72706 1.99889 2.79422 2.38529 2.10642 3.07309C1.41863 3.76088 1.03223 4.69373 1.03223 5.66642C1.03223 6.63911 1.41863 7.57196 2.10642 8.25975L2.81309 8.96642L7.99975 14.1531L13.1864 8.96642L13.8931 8.25975C14.2337 7.91925 14.504 7.51496 14.6884 7.06999C14.8727 6.62502 14.9676 6.14808 14.9676 5.66642C14.9676 5.18476 14.8727 4.70782 14.6884 4.26285C14.504 3.81788 14.2337 3.41359 13.8931 3.07309V3.07309Z" stroke-width="1.33333" stroke-linecap="round" stroke-linejoin="round" />
    </symbol>

    <symbol viewBox="0 0 16 16" id="header-user">
        <path d="M13.3327 14V12.6667C13.3327 11.9594 13.0517 11.2811 12.5516 10.781C12.0515 10.281 11.3733 10 10.666 10H5.33268C4.62544 10 3.94716 10.281 3.44706 10.781C2.94697 11.2811 2.66602 11.9594 2.66602 12.6667V14" stroke-width="1.33333" stroke-linecap="round" stroke-linejoin="round" />
        <path d="M7.99967 7.33333C9.47243 7.33333 10.6663 6.13943 10.6663 4.66667C10.6663 3.19391 9.47243 2 7.99967 2C6.52692 2 5.33301 3.19391 5.33301 4.66667C5.33301 6.13943 6.52692 7.33333 7.99967 7.33333Z" stroke-width="1.33333" stroke-linecap="round" stroke-linejoin="round" />
    </symbol>

    <symbol viewBox="0 0 21 21" id="main-where">
        <path d="M0.93934 17.9393C0.353553 18.5251 0.353553 19.4749 0.93934 20.0607C1.52513 20.6464 2.47487 20.6464 3.06066 20.0607L0.93934 17.9393ZM20.5 2C20.5 1.17157 19.8284 0.5 19 0.5L5.5 0.499999C4.67157 0.499999 4 1.17157 4 2C4 2.82843 4.67157 3.5 5.5 3.5H17.5V15.5C17.5 16.3284 18.1716 17 19 17C19.8284 17 20.5 16.3284 20.5 15.5L20.5 2ZM3.06066 20.0607L20.0607 3.06066L17.9393 0.939339L0.93934 17.9393L3.06066 20.0607Z" />
    </symbol>

    <symbol viewBox="0 0 16 16" id="in-favourite">
        <path d="M13.8921 3.07333C13.5516 2.73267 13.1473 2.46243 12.7023 2.27805C12.2574 2.09368 11.7804 1.99878 11.2988 1.99878C10.8171 1.99878 10.3402 2.09368 9.89521 2.27805C9.45023 2.46243 9.04595 2.73267 8.70544 3.07333L7.99878 3.78L7.29211 3.07333C6.60432 2.38553 5.67147 1.99914 4.69878 1.99914C3.72609 1.99914 2.79324 2.38553 2.10544 3.07333C1.41765 3.76112 1.03125 4.69397 1.03125 5.66666C1.03125 6.63935 1.41765 7.5722 2.10544 8.26L2.81211 8.96666L7.99878 14.1533L13.1854 8.96666L13.8921 8.26C14.2328 7.91949 14.503 7.51521 14.6874 7.07023C14.8718 6.62526 14.9667 6.14832 14.9667 5.66666C14.9667 5.185 14.8718 4.70807 14.6874 4.26309C14.503 3.81812 14.2328 3.41383 13.8921 3.07333Z" />
    </symbol>

    <symbol viewBox="0 0 30 30" id="catalogue-prev">
        <path d="M17 21L11 15L17 9" stroke-width="2" stroke-linecap="round" stroke-linejoin="round" />
    </symbol>

    <symbol viewBox="0 0 30 30" id="catalogue-next">
        <path d="M13 9L19 15L13 21" stroke-width="2" stroke-linecap="round" stroke-linejoin="round" />
    </symbol>

    <symbol viewBox="0 0 19 16" id="subscribe-btn">
        <path d="M18.7071 8.70711C19.0976 8.31658 19.0976 7.68342 18.7071 7.29289L12.3431 0.928932C11.9526 0.538408 11.3195 0.538408 10.9289 0.928932C10.5384 1.31946 10.5384 1.95262 10.9289 2.34315L16.5858 8L10.9289 13.6569C10.5384 14.0474 10.5384 14.6805 10.9289 15.0711C11.3195 15.4616 11.9526 15.4616 12.3431 15.0711L18.7071 8.70711ZM0 9H18V7H0V9Z" />
    </symbol>

    <symbol viewBox="0 0 25 15" id="card-color">
        <path d="M18.9986 1.60815C17.0241 0.487091 14.8837 -0.00755218 12.6265 8.70854e-05L12.6228 0.00199731C11.3905 -0.00755177 10.164 0.0879387 8.96945 0.416427C4.76409 1.56996 1.8927 4.18832 0.519174 8.41474C-0.0931643 10.3016 -0.0912806 12.2401 0.153655 14.1881C0.172273 14.3315 0.225846 14.4731 0.278016 14.611L0.27989 14.6159C0.355255 14.8126 0.496564 14.9769 0.703817 14.9826C1.48949 14.9998 2.27706 14.9941 3.06273 14.9941L21.7965 14.9807C22.5822 14.9902 23.3698 15.0017 24.1554 14.9998C24.472 14.9979 24.7018 14.7897 24.764 14.4555C25.0485 12.92 25.0919 11.3673 24.8055 9.84137C24.1215 6.2089 22.2035 3.4263 18.9986 1.60815Z" />
    </symbol>

    <symbol viewBox="0 0 19 5" id="card-color-checked">
        <path d="M2.68176 0.832934C2.9704 0.832934 3.2609 0.847317 3.54955 0.831136C4.33222 0.786187 5.05754 0.942607 5.79766 1.21409C8.28446 2.12205 10.799 2.12205 13.2821 1.18713C13.9279 0.944405 14.5588 0.807763 15.2471 0.829338C16.2093 0.858105 17.1751 0.845519 18.1373 0.859903C18.2169 0.859903 18.2964 0.933618 18.3741 0.976768C18.4703 1.0325 18.4333 1.22668 18.3075 1.34355C18.2021 1.44063 18.1021 1.54132 17.9911 1.63122C17.4323 2.0807 16.8328 2.46905 16.1926 2.80167C14.8197 3.51725 13.3524 3.93616 11.8167 4.17529C9.73509 4.49892 7.68311 4.36946 5.65333 3.87503C3.85299 3.43634 2.22103 2.65064 0.811105 1.46401C0.707488 1.37771 0.624227 1.25185 0.576119 1.12779C0.552065 1.06846 0.626076 0.904851 0.664933 0.901255C1.09605 0.867094 1.52717 0.850913 1.96014 0.838327C2.20068 0.831136 2.44122 0.838327 2.68361 0.838327L2.68176 0.832934Z" />
    </symbol>

    <symbol viewBox="0 0 16 16" id="card-info-block-title">
        <path d="M15 8L1 8" stroke-width="2" stroke-linecap="round" stroke-linejoin="round" />
        <path d="M8 1L8 15" stroke-width="2" stroke-linecap="round" stroke-linejoin="round" />
    </symbol>

    <symbol viewBox="0 0 80 80" id="video-play">
        <path d="M55 40L32.5 52.9904L32.5 27.0096L55 40Z" />
    </symbol>

    <symbol viewBox="0 0 10 8" id="catalogue-sort">
        <rect y="0.5" width="10" height="1" rx="0.5" />
        <rect y="3.5" width="7" height="1" rx="0.5" />
        <rect y="6.5" width="4" height="1" rx="0.5" />
    </symbol>

    <symbol viewBox="0 0 16 16" id="icon-checked">
        <path d="M13.3327 4.00024L5.99935 11.3336L2.66602 8.00024" stroke-width="1.33333" stroke-linecap="round" stroke-linejoin="round" />
    </symbol>

    <symbol viewBox="0 0 10 10" id="catalogue-filter-arrow">
        <path fill-rule="evenodd" clip-rule="evenodd" d="M-0.000139285 2.77737C-0.000139297 2.9196 0.054305 3.06182 0.162638 3.17015L4.60708 7.6146C4.82431 7.83182 5.17542 7.83182 5.39264 7.6146L9.83708 3.17015C10.0543 2.95293 10.0543 2.60182 9.83708 2.3846C9.61986 2.16737 9.26875 2.16737 9.05153 2.3846L4.99986 6.43626L0.948194 2.3846C0.730972 2.16737 0.37986 2.16737 0.162638 2.3846C0.0543051 2.49293 -0.000139273 2.63515 -0.000139285 2.77737Z" />
    </symbol>

    <symbol viewBox="0 0 12 12" id="catalogue-filter-remove">
        <path d="M9.7124 2.2876L2.28778 9.71222" stroke-width="1.5" stroke-linecap="round" stroke-linejoin="round" />
        <path d="M2.2876 2.2876L9.71222 9.71222" stroke-width="1.5" stroke-linecap="round" stroke-linejoin="round" />
    </symbol>

    <symbol viewBox="0 0 24 24" id="window-close">
        <path d="M19.4238 4.57538L4.57459 19.4246" stroke-width="2" stroke-linecap="round" stroke-linejoin="round" />
        <path d="M4.57617 4.57538L19.4254 19.4246" stroke-width="2" stroke-linecap="round" stroke-linejoin="round" />
    </symbol>

    <symbol viewBox="0 0 32 32" id="cart-remove">
        <path d="M10 11.6641H22M13.3125 11.6667V10.3333C13.3125 9.97971 13.453 9.64057 13.703 9.39052C13.9531 9.14048 14.2922 9 14.6458 9H17.3125C17.6661 9 18.0053 9.14048 18.2553 9.39052C18.5054 9.64057 18.6458 9.97971 18.6458 10.3333V11.6667M14.6875 15V19M17.3125 15V19M20.6458 11.6667V21C20.6458 21.3536 20.5054 21.6928 20.2553 21.9428C20.0053 22.1929 19.6661 22.3333 19.3125 22.3333H12.6458C12.2922 22.3333 11.9531 22.1929 11.703 21.9428C11.453 21.6928 11.3125 21.3536 11.3125 21V11.6667H20.6458Z" stroke-width="1.33333" stroke-linecap="round" stroke-linejoin="round" />
    </symbol>

    <symbol viewBox="0 0 16 16" id="cart-item-count-dec">
        <path d="M3.33203 7.99951H12.6654" stroke-width="1.33333" stroke-linecap="round" stroke-linejoin="round" />
    </symbol>

    <symbol viewBox="0 0 16 16" id="cart-item-count-inc">
        <path d="M8 3.33301V12.6663" stroke-width="1.33333" stroke-linecap="round" stroke-linejoin="round" />
        <path d="M3.33594 7.99951H12.6693" stroke-width="1.33333" stroke-linecap="round" stroke-linejoin="round" />
    </symbol>

    <symbol viewBox="0 0 24 24" id="order-back-link">
        <path d="M15 18L9 12L15 6" stroke-width="2" stroke-linecap="round" stroke-linejoin="round" />
    </symbol>

    <symbol viewBox="0 0 6 10" id="pager-prev">
        <path d="M5.25 9.5L0.750001 5L5.25 0.499999" stroke-linecap="round" stroke-linejoin="round" />
    </symbol>

    <symbol viewBox="0 0 6 10" id="pager-next">
        <path d="M0.750001 0.5L5.25 5L0.75 9.5" stroke-linecap="round" stroke-linejoin="round" />
    </symbol>

    <symbol viewBox="0 0 30 30" id="gallery-prev">
        <path d="M17 21L11 15L17 9" stroke-width="2" stroke-linecap="round" stroke-linejoin="round" />
    </symbol>

    <symbol viewBox="0 0 30 30" id="gallery-next">
        <path d="M13 9L19 15L13 21" stroke-width="2" stroke-linecap="round" stroke-linejoin="round" />
    </symbol>

    <symbol viewBox="0 0 40 40" id="search-window-close">
        <path d="M30 10L10 30" stroke-width="2" stroke-linecap="round" stroke-linejoin="round" />
        <path d="M10 10L30 30" stroke-width="2" stroke-linecap="round" stroke-linejoin="round" />
    </symbol>

    <symbol viewBox="0 0 24 24" id="footer-social-tg">
        <path fill-rule="evenodd" clip-rule="evenodd" d="M23.7736 11.8868C23.7736 18.4517 18.4517 23.7736 11.8868 23.7736C5.3219 23.7736 0 18.4517 0 11.8868C0 5.3219 5.3219 0 11.8868 0C18.4517 0 23.7736 5.3219 23.7736 11.8868ZM7.95549 10.7981C6.76475 11.318 5.54127 11.8521 4.42252 12.4684L4.42244 12.4685C3.83826 12.8962 4.61476 13.1987 5.34315 13.4825C5.45896 13.5276 5.57354 13.5722 5.68125 13.6168C5.77088 13.6444 5.86203 13.6734 5.9544 13.7028C6.76452 13.9609 7.66786 14.2487 8.45434 13.8158C9.74632 13.0736 10.9656 12.2156 12.1839 11.3582C12.5831 11.0773 12.9821 10.7965 13.3836 10.5198C13.4024 10.5078 13.4236 10.494 13.4468 10.479C13.7889 10.2572 14.5581 9.75865 14.2735 10.4457C13.6007 11.1815 12.8801 11.8328 12.1555 12.4877C11.6671 12.929 11.177 13.372 10.6986 13.8435C10.2819 14.1821 9.84918 14.863 10.3158 15.3371C11.3905 16.0894 12.4819 16.8235 13.5728 17.5572C13.9278 17.796 14.2827 18.0347 14.637 18.274C15.2374 18.7534 16.1757 18.3656 16.3077 17.6166C16.3664 17.2721 16.4253 16.9275 16.4843 16.583C16.81 14.6787 17.1358 12.7739 17.4236 10.8634C17.4627 10.5637 17.507 10.2641 17.5514 9.96427C17.6589 9.23764 17.7666 8.51012 17.8002 7.77958C17.7135 7.05055 16.8296 7.21085 16.3376 7.37478C13.8091 8.33691 11.3059 9.37037 8.81251 10.4221C8.53006 10.5472 8.24373 10.6722 7.95549 10.7981Z" />
    </symbol>

    <symbol viewBox="0 0 25 24" id="footer-social-yt">
        <path fill-rule="evenodd" clip-rule="evenodd" d="M12.6602 0C6.09534 0 0.773438 5.3219 0.773438 11.8868C0.773438 18.4517 6.09534 23.7736 12.6602 23.7736C19.2251 23.7736 24.547 18.4517 24.547 11.8868C24.547 5.3219 19.2251 0 12.6602 0ZM17.6159 7.80025C18.1614 7.94996 18.5911 8.39107 18.7369 8.95123C19.0019 9.96647 19.0019 12.0848 19.0019 12.0848C19.0019 12.0848 19.0019 14.203 18.7369 15.2183C18.5911 15.7785 18.1614 16.2196 17.6159 16.3694C16.6272 16.6414 12.6622 16.6414 12.6622 16.6414C12.6622 16.6414 8.6973 16.6414 7.70854 16.3694C7.16297 16.2196 6.73332 15.7785 6.58751 15.2183C6.32261 14.203 6.32261 12.0848 6.32261 12.0848C6.32261 12.0848 6.32261 9.96647 6.58751 8.95123C6.73332 8.39107 7.16297 7.94996 7.70854 7.80025C8.6973 7.52818 12.6622 7.52818 12.6622 7.52818C12.6622 7.52818 16.6272 7.52818 17.6159 7.80025Z" />
        <path d="M11.4629 14.2645V10.3022L14.6327 12.2835L11.4629 14.2645Z" />
    </symbol>

    <symbol viewBox="0 0 25 24" id="footer-social-vk">
        <path fill-rule="evenodd" clip-rule="evenodd" d="M24.3205 11.8868C24.3205 18.4517 18.9986 23.7736 12.4337 23.7736C5.86877 23.7736 0.546875 18.4517 0.546875 11.8868C0.546875 5.3219 5.86877 0 12.4337 0C18.9986 0 24.3205 5.3219 24.3205 11.8868ZM19.4877 7.54998C20.0078 7.54998 20.1253 7.81842 20.0078 8.18752C19.8245 9.03343 18.3025 11.2773 17.8311 11.9724C17.7415 12.1044 17.6899 12.1805 17.6925 12.1805C17.508 12.4825 17.4409 12.6168 17.6925 12.9523C17.7835 13.0764 17.9764 13.2657 18.1969 13.482C18.4237 13.7045 18.6796 13.9556 18.8837 14.1938C19.622 15.0327 20.1924 15.7374 20.3434 16.2239C20.4776 16.7104 20.2427 16.9621 19.7394 16.9621H18.0113C17.5534 16.9621 17.3173 16.6991 16.8142 16.1386C16.5985 15.8983 16.3337 15.6033 15.9813 15.2508C14.9578 14.2609 14.5048 14.1267 14.2532 14.1267C13.9009 14.1267 13.8002 14.2106 13.8002 14.7139V16.2742C13.8002 16.6937 13.666 16.9453 12.5587 16.9453C10.7299 16.9453 8.69986 15.838 7.27378 13.7744C5.12627 10.7545 4.53906 8.47274 4.53906 8.01975C4.53906 7.76809 4.62295 7.5332 5.12627 7.5332H6.87112C7.30733 7.5332 7.47511 7.71775 7.64288 8.2043C8.49853 10.6706 9.92461 12.8349 10.5118 12.8349C10.7299 12.8349 10.8306 12.7342 10.8306 12.1805V9.63038C10.7892 8.90552 10.5368 8.5897 10.3497 8.35551C10.2337 8.21027 10.1427 8.09642 10.1427 7.93586C10.1427 7.73453 10.3105 7.5332 10.5789 7.5332H13.2969C13.666 7.5332 13.8002 7.73453 13.8002 8.17074V11.6101C13.8002 11.9792 13.9512 12.1134 14.0686 12.1134C14.2867 12.1134 14.4713 11.9792 14.8739 11.5766C16.1155 10.184 17.0047 8.03653 17.0047 8.03653C17.1221 7.78486 17.3234 7.54998 17.7597 7.54998H19.4877Z" />
    </symbol>

    <symbol viewBox="0 0 24 25" id="footer-social-whatsapp">
        <path fill-rule="evenodd" clip-rule="evenodd" d="M0 12.5C0 19.1274 5.37258 24.5 12 24.5C18.6274 24.5 24 19.1274 24 12.5C24 5.87258 18.6274 0.5 12 0.5C5.37258 0.5 0 5.87258 0 12.5ZM19.5342 12.0411C19.5326 15.9745 16.3329 19.175 12.3987 19.1766H12.3957C11.2015 19.1762 10.028 18.8766 8.9858 18.3081L5.20312 19.3004L6.21543 15.6028C5.59099 14.5206 5.26241 13.2931 5.26295 12.0355C5.26452 8.10124 8.46553 4.90039 12.3986 4.90039C14.3074 4.90121 16.099 5.64432 17.4462 6.9931C18.7934 8.3418 19.535 10.1346 19.5342 12.0411Z" />
        <path fill-rule="evenodd" clip-rule="evenodd" d="M6.90959 17.605L9.15428 17.0162L9.37085 17.1447C10.2814 17.6851 11.3252 17.971 12.3895 17.9714H12.3919C15.6608 17.9714 18.3213 15.3108 18.3226 12.0406C18.3232 10.4559 17.7069 8.96579 16.5872 7.84474C15.4674 6.7237 13.9783 6.10602 12.3942 6.10547C9.12281 6.10547 6.46224 8.7658 6.46094 12.0358C6.46048 13.1564 6.77403 14.2478 7.36772 15.1921L7.50873 15.4165L6.90959 17.605ZM15.7421 13.5774C15.8664 13.6375 15.9504 13.6781 15.9863 13.7379C16.0308 13.8123 16.0308 14.1692 15.8823 14.5858C15.7337 15.0022 15.0214 15.3824 14.6788 15.4335C14.3717 15.4795 13.9829 15.4986 13.5558 15.3629C13.2969 15.2807 12.9648 15.171 12.5394 14.9873C10.8679 14.2656 9.73838 12.6456 9.52489 12.3394C9.50994 12.3179 9.49948 12.3029 9.49364 12.2951L9.49221 12.2932C9.39785 12.1673 8.76563 11.3238 8.76563 10.4507C8.76563 9.62948 9.16905 9.19901 9.35474 9.00086C9.36746 8.98729 9.37916 8.9748 9.38964 8.96336C9.55306 8.78486 9.74624 8.74023 9.86509 8.74023C9.98394 8.74023 10.1029 8.74133 10.2068 8.74655C10.2196 8.74719 10.233 8.74712 10.2467 8.74703C10.3506 8.74643 10.4802 8.74567 10.608 9.05261C10.6571 9.17074 10.7291 9.34586 10.8049 9.53057C10.9583 9.90407 11.1278 10.3167 11.1577 10.3765C11.2023 10.4657 11.232 10.5698 11.1725 10.6888C11.1636 10.7067 11.1554 10.7235 11.1475 10.7396C11.1028 10.8308 11.07 10.8978 10.9942 10.9862C10.9645 11.021 10.9337 11.0585 10.9029 11.096C10.8415 11.1707 10.7802 11.2454 10.7268 11.2986C10.6375 11.3875 10.5446 11.484 10.6486 11.6625C10.7526 11.841 11.1105 12.4248 11.6405 12.8976C12.2103 13.4058 12.7055 13.6206 12.9565 13.7295C13.0055 13.7507 13.0452 13.768 13.0743 13.7825C13.2525 13.8718 13.3565 13.8569 13.4606 13.7379C13.5646 13.6189 13.9063 13.2173 14.0251 13.0388C14.1439 12.8604 14.2628 12.8901 14.4262 12.9496C14.5897 13.0091 15.4663 13.4404 15.6446 13.5297C15.6794 13.5471 15.7119 13.5628 15.7421 13.5774Z" />
    </symbol>

    <symbol viewBox="0 0 16 16" id="nav-mobile-sublink">
        <path d="M5 14L11 8L5 2" stroke-width="2" stroke-linecap="round" stroke-linejoin="round" />
    </symbol>

    <symbol viewBox="0 0 16 16" id="footer-mobile-sublink">
        <path d="M2 5L8 11L14 5" stroke-width="2" stroke-linecap="round" stroke-linejoin="round" />
    </symbol>

    <symbol viewBox="0 0 16 16" id="mobile-menu-close">
        <path d="M12.9497 3.05023L3.05021 12.9497" stroke-width="2" stroke-linecap="round" stroke-linejoin="round" />
        <path d="M3.05029 3.05023L12.9498 12.9497" stroke-width="2" stroke-linecap="round" stroke-linejoin="round" />
    </symbol>

    <symbol viewBox="0 0 16 16" id="catalogue-filter">
        <path d="M2.66699 14.0007V9.33398" stroke="#6B645C" stroke-width="1.33333" stroke-linecap="round" stroke-linejoin="round" />
        <path d="M2.66699 6.66667V2" stroke="#6B645C" stroke-width="1.33333" stroke-linecap="round" stroke-linejoin="round" />
        <path d="M8 14V8" stroke="#6B645C" stroke-width="1.33333" stroke-linecap="round" stroke-linejoin="round" />
        <path d="M8 5.33333V2" stroke="#6B645C" stroke-width="1.33333" stroke-linecap="round" stroke-linejoin="round" />
        <path d="M13.333 13.9993V10.666" stroke="#6B645C" stroke-width="1.33333" stroke-linecap="round" stroke-linejoin="round" />
        <path d="M13.333 8V2" stroke="#6B645C" stroke-width="1.33333" stroke-linecap="round" stroke-linejoin="round" />
        <path d="M0.666992 9.33398H4.66699" stroke="#6B645C" stroke-width="1.33333" stroke-linecap="round" stroke-linejoin="round" />
        <path d="M6 5.33398H10" stroke="#6B645C" stroke-width="1.33333" stroke-linecap="round" stroke-linejoin="round" />
        <path d="M11.333 10.666H15.333" stroke="#6B645C" stroke-width="1.33333" stroke-linecap="round" stroke-linejoin="round" />
    </symbol>

    <symbol viewBox="0 0 40 40" id="window-photo-close">
        <path d="M27.4246 12.5762L12.5753 27.4254" stroke-width="2" stroke-linecap="round" stroke-linejoin="round" />
        <path d="M12.5754 12.5762L27.4247 27.4254" stroke-width="2" stroke-linecap="round" stroke-linejoin="round" />
    </symbol>

    <symbol viewBox="0 0 16 16" id="collection-detail-item-header-close">
        <path d="M12.9492 3.05078L3.04972 12.9503" stroke="#A6A29D" stroke-width="2" stroke-linecap="round" stroke-linejoin="round" />
        <path d="M3.05078 3.05078L12.9503 12.9503" stroke="#A6A29D" stroke-width="2" stroke-linecap="round" stroke-linejoin="round" />
    </symbol>

    <symbol viewBox="0 0 24 24" id="window-collections-close">
        <path d="M16.5 7.5L7.5 16.5" stroke-width="1.33" stroke-linecap="round" stroke-linejoin="round" />
        <path d="M7.5 7.5L16.5 16.5" stroke-width="1.33" stroke-linecap="round" stroke-linejoin="round" />
    </symbol>

    <symbol viewBox="0 0 20 20" id="icon-doc">
        <path d="M11.6654 1.66602H4.9987C4.55667 1.66602 4.13275 1.84161 3.82019 2.15417C3.50763 2.46673 3.33203 2.89065 3.33203 3.33268V16.666C3.33203 17.108 3.50763 17.532 3.82019 17.8445C4.13275 18.1571 4.55667 18.3327 4.9987 18.3327H14.9987C15.4407 18.3327 15.8646 18.1571 16.1772 17.8445C16.4898 17.532 16.6654 17.108 16.6654 16.666V6.66602L11.6654 1.66602Z" stroke-width="1.25" stroke-linecap="round" stroke-linejoin="round" />
        <path d="M11.6641 1.66602V6.66602H16.6641" stroke-width="1.25" stroke-linecap="round" stroke-linejoin="round" />
        <path d="M13.3307 10.834H6.66406" stroke-width="1.25" stroke-linecap="round" stroke-linejoin="round" />
        <path d="M13.3307 14.166H6.66406" stroke-width="1.25" stroke-linecap="round" stroke-linejoin="round" />
        <path d="M8.33073 7.5H7.4974H6.66406" stroke-width="1.25" stroke-linecap="round" stroke-linejoin="round" />
    </symbol>

    <symbol viewBox="0 0 33 34" id="about-boss-text">
        <path d="M10.9005 0L7.91403 17.0742H12.3937V34H0V17.0742L4.47964 0H10.9005ZM31.5068 0L28.5204 17.0742H33V34H20.6063V17.0742L25.086 0H31.5068Z" />
    </symbol>

    <symbol viewBox="0 0 24 25" id="order-final-info-status">
        <path d="M20 6.5L9 17.5L4 12.5" stroke-width="2" stroke-linecap="round" stroke-linejoin="round" />
    </symbol>

    <symbol viewBox="0 0 32 32" id="promo-send">
        <path d="M12 23L20 16L12 9" stroke-width="2" stroke-linecap="round" stroke-linejoin="round" />
    </symbol>

    <symbol viewBox="0 0 32 32" id="promo-reset">
        <path d="M10 22L16 16M16 16L10 10M16 16L22 10M16 16L22 22" stroke-width="2" stroke-linecap="round" stroke-linejoin="round" />
    </symbol>

    <symbol viewBox="0 0 24 24" id="catalogue-filter-reset">
        <path d="M15.7124 8.28769L8.28778 15.7123" stroke-width="1.5" stroke-linecap="round" stroke-linejoin="round" />
        <path d="M8.2876 8.28769L15.7122 15.7123" stroke-width="1.5" stroke-linecap="round" stroke-linejoin="round" />
    </symbol>

</svg>